<svg width="67" height="67" viewBox="0 0 67 67" fill="none" xmlns="http://www.w3.org/2000/svg">
<path d="M33.5 0C15.0002 0 0 15.0002 0 33.5C0 51.9998 15.0002 67 33.5 67C51.9998 67 67 51.9998 67 33.5C67 15.0002 51.9998 0 33.5 0ZM33.5 52.942C31.8474 52.942 30.5089 51.6035 30.5089 49.9509C30.5089 48.2983 31.8474 46.9598 33.5 46.9598C35.1526 46.9598 36.4911 48.2983 36.4911 49.9509C36.4911 51.6035 35.1526 52.942 33.5 52.942ZM38.2035 36.5285C37.5263 36.79 36.9436 37.2495 36.5314 37.847C36.1193 38.4446 35.8967 39.1525 35.8929 39.8785V41.5759C35.8929 41.9049 35.6237 42.1741 35.2946 42.1741H31.7054C31.3763 42.1741 31.1071 41.9049 31.1071 41.5759V39.9682C31.1071 38.2408 31.6081 36.5359 32.5952 35.1152C33.5598 33.7243 34.9058 32.6625 36.4911 32.0568C39.0335 31.0772 40.6786 28.9461 40.6786 26.6205C40.6786 23.3229 37.4557 20.6384 33.5 20.6384C29.5443 20.6384 26.3214 23.3229 26.3214 26.6205V27.1888C26.3214 27.5179 26.0522 27.7871 25.7232 27.7871H22.1339C21.8049 27.7871 21.5357 27.5179 21.5357 27.1888V26.6205C21.5357 23.6818 22.8219 20.9375 25.1549 18.8961C27.3982 16.9295 30.3594 15.8527 33.5 15.8527C36.6406 15.8527 39.6018 16.9369 41.8451 18.8961C44.1781 20.9375 45.4643 23.6818 45.4643 26.6205C45.4643 30.9426 42.6153 34.831 38.2035 36.5285Z" fill="#E95CC0"/>
</svg>
