<svg viewBox="0 0 300 300" xmlns="http://www.w3.org/2000/svg"><g fill="#c0ddea"><path d="m211.49 88.42c-16.47-16.44-38.33-25.51-61.57-25.47-47.94.04-86.96 39.04-86.98 86.94 0 23.28 9.06 45.17 25.54 61.65 16.45 16.45 38.3 25.5 61.53 25.5h.06c47.98-.03 87-39.12 86.98-87.13-.01-23.21-9.09-45.05-25.56-61.5zm-61.42 142.1h-.06c-21.48 0-41.69-8.38-56.91-23.59-15.24-15.24-23.64-35.49-23.63-57.02.02-44.31 36.11-80.38 80.45-80.42h.06c21.46 0 41.67 8.37 56.89 23.56 15.24 15.21 23.64 35.41 23.65 56.88.02 44.41-36.07 80.56-80.45 80.59z"/><path d="m161.97 101.85c-3.03-3.41-7.37-5.38-11.91-5.39h-.04c-7.75 0-14.42 5.56-15.86 13.24-.46 2.44-.22 4.75-.02 6.78.05.51.11 1.02.15 1.54.65 8.26 1.37 16.65 2.06 24.77.44 5.23.89 10.45 1.32 15.68.53 6.4 5.66 11.36 11.94 11.53h.35c3.78 0 7.21-1.69 9.5-4.38.36-.42.69-.87.99-1.34.2-.31.39-.64.56-.97.68-1.33 1.13-2.81 1.27-4.37.54-5.92 1.03-11.93 1.5-17.75.22-2.71.44-5.43.66-8.14.15-1.83.29-3.66.43-5.49.32-4.21.65-8.57 1.14-12.8.38-3.23-.2-6.47-1.61-9.32-.64-1.29-1.46-2.51-2.43-3.61zm-17.8 56.09c-.43-5.23-.88-10.46-1.32-15.7-.69-8.11-1.4-16.49-2.05-24.73-.04-.56-.1-1.12-.16-1.69-.02-.22-.04-.44-.07-.65-.15-1.51-.25-2.94 0-4.26.32-1.72 1.08-3.27 2.15-4.52 1.78-2.1 4.41-3.4 7.29-3.4h.02c2.72 0 5.22 1.14 7.04 3.19.71.8 1.27 1.69 1.69 2.66.69 1.6.96 3.39.75 5.17-.38 3.27-.67 6.58-.92 9.83-.09 1.08-.17 2.16-.25 3.23-.14 1.81-.28 3.63-.43 5.44-.23 2.72-.45 5.44-.66 8.15-.47 5.8-.95 11.8-1.49 17.68-.27 2.96-2.91 5.22-5.99 5.13-2.94-.08-5.35-2.46-5.61-5.54z"/><path d="m160.19 178.91c-2.57-2.57-5.92-4.06-9.5-4.23-.03 0-.05 0-.08 0-.21 0-.41-.02-.62-.02h-.02c-3.85 0-7.47 1.52-10.19 4.25-2.73 2.75-4.23 6.39-4.22 10.25.03 7.89 6.47 14.33 14.35 14.36h.06c3.84 0 7.45-1.5 10.19-4.22 2.74-2.73 4.26-6.35 4.26-10.19 0-3.61-1.32-7.02-3.74-9.69-.16-.18-.33-.35-.5-.52zm-4.62 15.77c-1.51 1.51-3.5 2.34-5.62 2.32-4.24-.02-7.83-3.61-7.85-7.85 0-2.12.81-4.11 2.32-5.62 1.49-1.5 3.47-2.33 5.57-2.33h.01c2.1 0 4.08.83 5.58 2.33s2.33 3.49 2.33 5.59c0 2.09-.83 4.07-2.34 5.56z"/></g></svg>