<svg viewBox="0 0 300 300" xmlns="http://www.w3.org/2000/svg"><g fill="#0fb6cc"><path d="m225.84 179.02c-.05-2.55-1.44-4.79-2.03-5.64-2.38-3.37-6.74-4.72-10.88-3.32-3.92 1.31-6.59 4.92-6.63 8.97-.05 4.8-.05 9.6-.04 14.4v5.37s-112.56 0-112.56 0v-4.16c0-4.78 0-9.56-.01-14.34 0-1.13-.03-2.32-.36-3.54-1.24-4.63-5.8-7.69-10.57-7.16-4.9.56-8.63 4.6-8.68 9.41-.06 6.04-.03 12.08 0 18.12l.02 5.51c0 .67.09 1.39.26 2.21 1.77 8.39 8.64 13.82 17.5 13.82h87.16s29.05 0 29.05 0c.56 0 1.13 0 1.68-.03 8.83-.46 15.91-7.6 16.1-16.26.16-6.94.16-14.36 0-23.35z"/><path d="m143.43 186.76c1.95 1.69 4.27 2.54 6.58 2.54s4.47-.8 6.33-2.41c9.89-8.57 19.72-17.21 29.55-25.84 2.45-2.15 3.61-5.1 3.27-8.32-.41-3.87-2.61-6.79-6.18-8.2-3.6-1.42-7.24-.77-10.27 1.86-3.26 2.84-6.52 5.69-9.77 8.54l-3.13 2.74v-65.14c0-.69 0-1.38-.04-2.06-.33-4.97-4.37-8.89-9.4-9.12-2.6-.19-5.17.88-7.1 2.74-2.06 1.98-3.19 4.78-3.17 7.88.08 16.75.07 33.49.05 50.24v15.45s-2.58-2.25-2.58-2.25c-3.52-3.1-7.03-6.19-10.6-9.22-4.19-3.55-10.28-3.08-13.86 1.07-3.56 4.13-3.1 10.22 1.05 13.87 9.74 8.57 19.5 17.11 29.28 25.62z"/></g></svg>