<svg viewBox="0 0 300 300" xmlns="http://www.w3.org/2000/svg"><g fill="#c0ddea"><path d="m237.54 139.73c-3.2-.07-6.32-.05-9.62-.04-.45 0-.91 0-1.36 0-1.92-13.5-7.03-25.79-15.22-36.59.18-.17.35-.34.53-.51 2.13-2.07 4.34-4.22 6.4-6.45.94-1.01 2.6-3.11 3.26-5.79 1.07-4.37-.98-8.81-5.12-11.06-4.04-2.19-8.63-1.6-11.97 1.56-2.62 2.47-5.16 5.07-7.62 7.58l-.11.11c-5.5-4.16-11.18-7.43-17.27-9.95-6.02-2.5-12.3-4.18-19.13-5.13v-2.47c0-.79 0-1.57 0-2.36 0-1.77.01-3.6-.02-5.41-.09-6.03-4.5-10.59-10.25-10.62h-.06c-5.79 0-10.21 4.53-10.3 10.56-.04 2.58-.03 5.19-.02 7.71v2.59c-13.6 1.9-25.62 6.9-36.57 15.22-.16-.17-.32-.33-.49-.5-2.07-2.12-4.2-4.32-6.43-6.39-1.01-.94-3.11-2.62-5.74-3.3-4.36-1.12-8.82.9-11.11 5.02-2.26 4.08-1.66 8.74 1.59 12.15 2.35 2.47 4.8 4.88 7.18 7.2l.43.42c-8.24 10.99-13.2 22.96-15.07 36.4h-.76c-.85 0-1.71.01-2.56.03-1.85.03-3.6.06-5.32-.05-5.92-.38-10.09 2.31-12.06 7.76-.13.36-.19.73-.19 1.11v2.94c0 .37.06.74.19 1.1 1.34 3.77 4.55 8.19 12.2 7.78 2.5-.13 5.02-.1 7.69-.07h.79c1.92 13.53 7.03 25.81 15.24 36.6-.27.27-.55.53-.82.8-2.25 2.2-4.37 4.27-6.5 6.45-3.68 3.76-4.23 9.26-1.34 13.37 1.76 2.51 4.46 4.11 7.39 4.4 3.02.3 6.09-.81 8.42-3.04 1.88-1.8 3.73-3.67 5.52-5.48.64-.65 1.29-1.3 1.93-1.95 10.76 8.11 22.98 13.17 36.4 15.06v1.69c0 .76.01 1.52.03 2.29.03 1.62.05 3.16-.05 4.66-.4 5.91 2.28 10.08 7.76 12.06.36.13.73.19 1.11.19h2.94c.38 0 .75-.07 1.11-.19 5.38-1.94 8.07-6.1 7.77-12.02-.13-2.55-.1-5.11-.07-7.83 0-.28 0-.55 0-.83 6.81-.94 13.12-2.64 19.22-5.17 6.21-2.58 11.92-5.88 17.38-10.06.32.36.66.72 1 1.07 2.44 2.5 4.35 4.4 6.19 6.17 4.43 4.26 10.85 4.32 14.94.14 4.08-4.17 3.94-10.38-.33-14.76-2.32-2.38-4.66-4.69-7.23-7.22 8.25-10.98 13.2-22.94 15.07-36.39h.53c3.04 0 5.91.01 8.85-.02 1.31-.01 2.84-.07 4.36-.54 4.73-1.46 7.75-6.27 7.03-11.18-.74-5.01-4.85-8.72-9.77-8.83zm.82 13.78c-.69.21-1.66.24-2.51.25-2.9.03-5.75.03-8.76.02-1.14 0-2.28 0-3.44 0-1.67 0-3.07 1.26-3.25 2.93-1.51 14.44-6.76 27.03-16.04 38.49-.57.7-.82 1.61-.7 2.51.13.9.62 1.7 1.36 2.22.25.18.49.33.72.48.19.12.44.29.51.35 2.79 2.74 5.3 5.22 7.76 7.74 1.8 1.85 1.93 4 .33 5.64-1.58 1.62-3.89 1.5-5.74-.28-1.79-1.72-3.66-3.58-6.05-6.03-.63-.65-1.25-1.35-1.89-2.09-.31-.36-.63-.72-.95-1.08-1.17-1.31-3.16-1.46-4.51-.34-5.7 4.7-11.66 8.31-18.2 11.03-6.36 2.64-13 4.3-20.3 5.06-1.66.17-2.93 1.58-2.93 3.25 0 1.23-.01 2.45-.03 3.65-.03 2.7-.07 5.48.07 8.24.14 2.84-.7 4.38-2.97 5.35h-1.72c-2.31-.98-3.15-2.5-2.96-5.28.12-1.78.09-3.52.06-5.21-.01-.73-.03-1.45-.03-2.17v-4.58c0-1.67-1.26-3.07-2.92-3.25-14.46-1.52-26.94-6.68-38.17-15.78-1.27-1.03-3.1-.96-4.29.16-.17.16-.34.32-.49.46-.36.33-.68.63-.99.94-.88.88-1.75 1.76-2.63 2.65-1.75 1.77-3.57 3.61-5.39 5.35-.97.92-2.13 1.37-3.26 1.26-1.06-.1-2.01-.69-2.69-1.65-1.1-1.57-.85-3.51.66-5.05 2.08-2.13 4.18-4.18 6.4-6.35.97-.95 1.94-1.9 2.92-2.87 1.2-1.18 1.3-3.09.23-4.39-9.21-11.25-14.45-23.81-16.01-38.4-.18-1.66-1.58-2.92-3.25-2.92-1.21 0-2.41-.02-3.6-.03-2.65-.03-5.4-.07-8.11.08-3.37.18-4.71-1.03-5.52-2.96v-1.72c.98-2.3 2.51-3.14 5.31-2.96 1.98.13 3.94.09 5.84.06.82-.01 1.64-.03 2.46-.03h3.65c1.67 0 3.07-1.26 3.25-2.92 1.52-14.44 6.77-27.05 16.07-38.53.57-.71.83-1.63.69-2.53-.13-.9-.64-1.71-1.39-2.22-.26-.18-.51-.34-.76-.49-.21-.13-.49-.31-.57-.38l-.96-.94c-2.33-2.29-4.75-4.65-7.02-7.04-1.26-1.32-1.48-2.91-.61-4.47.63-1.14 2-2.31 3.77-1.86.89.23 1.98.89 2.92 1.76 2.1 1.95 4.09 3.99 6.19 6.15.85.87 1.7 1.75 2.56 2.62 1.18 1.2 3.08 1.3 4.38.24 11.34-9.23 23.9-14.46 38.4-15.99 1.66-.18 2.92-1.58 2.92-3.25v-2.12c0-1.13 0-2.26 0-3.38 0-2.5-.02-5.08.02-7.6.03-2.43 1.58-4.11 3.77-4.11h.02c2.21.01 3.72 1.7 3.76 4.19.03 1.75.02 3.55.01 5.29v2.38 5.36c0 1.67 1.26 3.07 2.92 3.25 7.34.78 13.96 2.42 20.24 5.03 6.5 2.69 12.5 6.33 18.35 11.11.73.6 1.68.85 2.61.69s1.75-.71 2.24-1.52c.16-.26.31-.53.45-.79.09-.16.2-.38.26-.47l.64-.65c2.41-2.47 4.91-5.02 7.43-7.4 1.27-1.2 2.82-1.4 4.36-.56 1.2.65 2.33 1.98 1.89 3.76-.22.9-.86 1.99-1.71 2.91-1.95 2.11-3.99 4.1-6.16 6.21-.88.86-1.76 1.72-2.65 2.59-1.2 1.18-1.3 3.08-.23 4.39 9.21 11.28 14.44 23.85 15.99 38.43.18 1.66 1.58 2.92 3.25 2.92 1.44 0 2.87 0 4.28-.01 3.26-.02 6.34-.03 9.45.04 1.76.04 3.17 1.37 3.45 3.25.25 1.73-.84 3.48-2.49 3.99z"/><path d="m129.76 164.96c3.06-2.93 1.54-5.94 1.04-6.93-.06-.11-.13-.26-.17-.34-.26-1.54-1.29-3.97-5.24-3.92h-.2c-5.27 0-10.55 0-15.82 0-4.03 0-8.05 0-12.08 0-.52 0-1 .04-1.46.08-.2.02-.41.03-.63.05-.9.06-1.74.49-2.31 1.19s-.83 1.61-.71 2.5c1.39 10.35 5.17 19.48 11.56 27.9.57.75 1.43 1.22 2.37 1.28h.23c.86 0 1.69-.34 2.3-.95 1.95-1.94 3.89-3.88 5.82-5.8 5.22-5.22 10.16-10.16 15.3-15.08zm-22.98 13.53c-3.72-5.63-6.2-11.63-7.52-18.18h10.12 15.28c.05.12.11.24.16.35-5.05 4.85-10.09 9.89-14.97 14.76-1.02 1.02-2.04 2.04-3.07 3.07z"/><path d="m94.99 146.01c.15.02.28.04.4.06.37.06.78.13 1.29.13h9.65c6.34 0 12.9 0 19.35.02h.03c2.71 0 4.44-1.47 5.14-4.38.02-.08.04-.17.06-.24.68-.92 1.99-3.35-.78-6.05l-.12-.12c-4.24-4.22-8.47-8.45-12.7-12.67l-7.84-7.82c-.25-.25-.49-.46-.73-.65-.09-.07-.18-.15-.28-.24-.68-.6-1.58-.88-2.48-.79s-1.72.56-2.27 1.28c-6.4 8.46-10.16 17.55-11.5 27.81-.23 1.78 1.01 3.41 2.79 3.66zm11.79-24.52 5.91 5.9c4.02 4.01 8.04 8.02 12.06 12.03-.03.09-.06.18-.08.27-4.47-.02-8.98-.02-13.43-.02-1.65 0-3.28 0-4.91 0-2.36 0-4.71 0-7.07 0 1.3-6.52 3.78-12.52 7.52-18.18z"/><path d="m156.36 130.11c.96.47 1.91.84 2.74 1.16.27.1.53.2.77.3.4.16.81.24 1.22.24.85 0 1.68-.33 2.3-.95l22.38-22.24c.67-.67 1.02-1.59.96-2.53s-.53-1.81-1.28-2.38c-8.31-6.33-17.62-10.19-27.67-11.48-1.31-.17-2.6.47-3.25 1.62-.03.05-.05.08-.06.1-.16.25-.57.9-.57 1.87v2.24c-.04 9.19-.07 18.7-.07 28.05 0 1.6 1.07 3.29 2.54 4.01zm4.05-30.84c6.39 1.28 12.42 3.77 18.01 7.45l-18.07 17.95c0-8.47.03-17.06.06-25.4z"/><path d="m185.86 190.82c-.25-.2-.49-.38-.72-.54-.31-.23-.58-.43-.72-.57-1.37-1.36-2.75-2.73-4.13-4.09-4.79-4.75-9.75-9.65-14.52-14.56-1.72-1.77-4.48-3.85-8.66-1.58-1.57.85-3.38 2.25-3.36 5.45.04 6.97.04 14.06.03 20.92v6.77 1.97c0 .94.41 1.84 1.11 2.46.6.53 1.37.81 2.15.81.14 0 .28 0 .43-.03 10.47-1.38 19.74-5.25 28.35-11.83.8-.61 1.28-1.56 1.28-2.57s-.45-1.97-1.25-2.59zm-25.54 9.9c0-1.63 0-3.25 0-4.88 0-6.77.01-13.77-.03-20.67.09-.05.17-.08.23-.11.12.09.3.25.58.54 4.81 4.95 9.79 9.88 14.6 14.65.97.96 1.93 1.91 2.9 2.87-5.69 3.77-11.72 6.27-18.27 7.6z"/><path d="m204.58 153.78h-2.2c-2.39 0-4.78.01-7.16.03-5.81.04-11.83.07-17.7-.12-1.98-.07-7.98-.26-9.27 6.66-.25 1.31.19 2.55 1.16 3.33l21.97 22.1c.62.62 1.45.96 2.32.96h.22c.94-.06 1.81-.53 2.38-1.29 6.43-8.51 10.2-17.67 11.52-27.99.12-.93-.17-1.87-.79-2.57s-1.51-1.11-2.45-1.11zm-11.31 24.64-17.95-18.06c.36-.14.95-.18 1.99-.14 6 .2 12.08.16 17.95.12 1.83-.01 3.65-.02 5.48-.03-1.29 6.49-3.76 12.46-7.47 18.11z"/><path d="m143.56 169.85c-.96-.49-1.92-.86-2.62-1.12-.2-.08-.38-.14-.53-.21-1.21-.49-2.6-.21-3.53.71l-22.44 22.31c-.67.67-1.02 1.59-.96 2.54.06.94.54 1.81 1.29 2.38 8.23 6.21 17.47 10.02 27.47 11.31.14.02.28.03.42.03 1.21 0 2.34-.68 2.9-1.77.02-.03.03-.05.04-.07.17-.28.57-.95.57-1.91v-.96c.02-9.56.04-19.44 0-29.17 0-1.87-1.36-3.42-2.62-4.06zm-3.92 30.88c-6.34-1.26-12.32-3.71-17.84-7.31l17.85-17.75c.02 8.35 0 16.81 0 25.05z"/><path d="m195.9 114.04c-.64-.84-1.64-1.32-2.69-1.28-1.05.03-2.02.57-2.61 1.44-.19.28-.36.56-.52.82-.12.2-.29.47-.34.54l-3.11 3.14c-5.07 5.12-10.31 10.41-15.54 15.52-1.15 1.12-4.2 4.09-1.58 8.7.94 1.65 2.3 3.33 5.34 3.33h.06c6.96-.05 14.05-.04 20.9-.04h6.79 2.01c.94 0 1.84-.41 2.46-1.12s.9-1.65.78-2.58c-1.41-10.5-5.32-19.82-11.94-28.47zm-.09 25.63c-6.75 0-13.73-.01-20.61.03 0 0 0-.01-.01-.02-.04-.08-.08-.14-.1-.2.1-.12.27-.32.57-.61 5.27-5.14 10.53-10.46 15.62-15.6l1.87-1.88c3.8 5.73 6.28 11.68 7.61 18.28-1.65 0-3.29 0-4.94 0z"/><path d="m146.21 104.18c0-2.26 0-4.52 0-6.78v-1.99c0-.94-.4-1.83-1.11-2.45s-1.65-.91-2.58-.78c-10.43 1.36-19.75 5.26-28.49 11.92-.84.64-1.32 1.64-1.28 2.69.03 1.05.57 2.03 1.44 2.61.29.19.56.36.82.52.2.12.48.29.54.35l3.27 3.23c5.08 5.02 10.33 10.22 15.38 15.41.8.82 2.54 2.6 5.16 2.6 1.04 0 2.22-.28 3.53-1.01 1.67-.93 3.37-2.3 3.35-5.41-.05-6.97-.04-14.06-.04-20.91zm-6.5 20.62c-.09.05-.16.09-.22.11-.12-.1-.31-.27-.6-.56-5.1-5.23-10.37-10.45-15.47-15.49l-2.01-1.99c5.78-3.83 11.72-6.3 18.28-7.61v4.92c0 6.76-.01 13.74.03 20.62z"/></g></svg>