<svg viewBox="0 0 300 300" xmlns="http://www.w3.org/2000/svg"><g fill="#4891dc"><path d="m158.17 153.49v14.87c0 2.19-.6 2.86-2.79 3.14-.53.07-1.07.1-1.61.09-3.28-.05-3.96-.75-3.96-3.99 0-9.53 0-19.07 0-28.6 0-2.7.71-3.42 3.43-3.51.32-.01.65-.02.97-.01 3.32.03 3.97.67 3.97 3.96v14.06z"/><path d="m153.96 131.96c-3.48 0-4.85-1.35-4.83-4.75.02-3.34 1.44-4.69 4.94-4.68 3.37 0 4.75 1.37 4.75 4.68 0 3.38-1.4 4.75-4.86 4.76z"/><path d="m152.17 197.99c-27.84 0-50.49-22.65-50.49-50.49s22.65-50.49 50.49-50.49 50.49 22.65 50.49 50.49-22.65 50.49-50.49 50.49zm0-96.99c-25.64 0-46.49 20.86-46.49 46.49s20.86 46.49 46.49 46.49 46.49-20.86 46.49-46.49-20.86-46.49-46.49-46.49z"/></g></svg>