<svg viewBox="0 0 300 300" xmlns="http://www.w3.org/2000/svg"><path d="m222.89 231.12c-2.52 0-4.58-1.97-4.75-4.48-.95-14.46-5.99-27.5-15.41-38.84-11.53-13.88-26.27-22.34-44.28-24.51-20.82-2.51-39.15 3.32-54.69 17.43-12.75 11.57-19.97 26.06-21.96 43.14-.11.9-.17 1.81-.21 2.72-.13 2.54-2.21 4.54-4.75 4.54h-3.07c-2.76 0-4.96-2.35-4.74-5.1 2.79-34.64 21.55-57.98 53.85-71.83-12.59-9.43-19.68-22.04-19.85-38.07-.15-13.08 4.56-24.42 13.87-33.6 19.33-19.07 49.19-17.52 66.78.82 19.44 20.26 17.23 53.7-7.14 71.08.68.27 1.22.49 1.76.71 24.73 9.85 41.24 27.4 49.31 52.8 1.75 5.5 2.73 11.16 3.11 16.93.03.51.18 1.01.28 1.52 0 2.63-2.13 4.75-4.75 4.75h-3.34zm-73.17-81.13c18.74.13 34.16-15.13 34.36-34 .2-18.77-15.18-34.31-34.08-34.44-18.74-.13-34.16 15.13-34.36 34-.2 18.77 15.18 34.31 34.08 34.44z" fill="#0fb6cc"/></svg>