<svg viewBox="0 0 300 300" xmlns="http://www.w3.org/2000/svg"><g fill="#f3bd48"><path d="m156.31 171.82h-48.12c-8.55 0-15.51-6.96-15.51-15.51v-48.12c0-8.55 6.96-15.51 15.51-15.51h48.12c8.55 0 15.51 6.96 15.51 15.51v48.12c0 8.55-6.96 15.51-15.51 15.51zm-48.12-71.01c-4.07 0-7.38 3.31-7.38 7.38v48.12c0 4.07 3.31 7.38 7.38 7.38h48.12c4.07 0 7.38-3.31 7.38-7.38v-48.12c0-4.07-3.31-7.38-7.38-7.38z"/><path d="m191.81 207.32h-48.12c-8.55 0-15.51-6.96-15.51-15.51v-48.12c0-8.55 6.96-15.51 15.51-15.51h48.12c8.55 0 15.51 6.96 15.51 15.51v48.12c0 8.55-6.96 15.51-15.51 15.51zm-48.12-71.01c-4.07 0-7.38 3.31-7.38 7.38v48.12c0 4.07 3.31 7.38 7.38 7.38h48.12c4.07 0 7.38-3.31 7.38-7.38v-48.12c0-4.07-3.31-7.38-7.38-7.38z"/></g></svg>