<svg viewBox="0 0 300 300" xmlns="http://www.w3.org/2000/svg"><path d="m136.31 97.25c-4.48-4.48-8.81-8.88-13.21-13.2-9.56-9.36-24.73-10.48-35.41-2.67-11.08 8.1-14.71 22.94-8.4 34.98 1.28 2.45 3 4.75 4.89 6.77 4.21 4.49 8.66 8.75 13.08 13.17z" fill="none"/><path d="m176.45 98.33c-5-5-9.98-5.01-14.98 0-10.53 10.52-21.05 21.05-31.58 31.57-10.58 10.58-21.16 21.15-31.73 31.73-4.79 4.8-4.78 9.88.01 14.67 14.59 14.6 29.19 29.19 43.79 43.79 4.87 4.87 10.03 4.9 14.87.06 21.11-21.1 42.21-42.2 63.3-63.3 4.84-4.84 4.81-10-.06-14.87-14.54-14.55-29.09-29.09-43.63-43.63zm-.23 76.25c-2.69 3.52-7.67 4.57-11.64 2.41-.69-.37-1.34-.85-1.9-1.4-6.68-6.65-13.39-13.27-19.98-20-3.32-3.39-3.34-8.44-.3-12.18 2.68-3.3 7.79-4.27 11.54-1.96 1.5.92 2.74 2.3 4.03 3.55 2.57 2.51 5.1 5.08 7.64 7.62 0 0-.01.01-.02.02 3.36 3.36 6.78 6.65 10.05 10.09 3.15 3.3 3.32 8.28.58 11.86z" fill="none"/><g fill="#b2b2b2"><path d="m234.22 130.1c-15.15-15.46-30.49-30.73-45.91-45.93-9.39-9.25-23.27-10.55-34.32-3.56-1.61 1.02-3.08 2.27-4.73 3.5-3.96-3.96-7.81-7.93-11.8-11.75-2.28-2.18-4.66-4.29-7.2-6.15-20.29-14.86-50.45-9.41-64.41 11.58-12.54 18.85-10.32 42.54 5.54 58.73 4.17 4.26 8.43 8.44 12.81 12.83-.39.46-.6.73-.83.99-9.88 11.25-9.61 27.45.9 38.09 15.11 15.3 30.31 30.5 45.61 45.61 11.01 10.88 28.01 10.88 38.97-.02 21.78-21.63 43.49-43.35 65.13-65.12 10.85-10.92 11.03-27.79.23-38.8zm-150.05-6.96c-1.89-2.02-3.61-4.32-4.89-6.77-6.31-12.05-2.67-26.88 8.4-34.98 10.68-7.82 25.86-6.69 35.41 2.67 4.41 4.32 8.73 8.72 13.21 13.2l-39.05 39.05c-4.42-4.42-8.87-8.68-13.08-13.17zm135.97 33.7c-21.1 21.11-42.2 42.21-63.3 63.3-4.84 4.84-10 4.81-14.87-.06-14.6-14.59-29.19-29.19-43.79-43.79-4.79-4.79-4.8-9.87-.01-14.67 10.57-10.58 21.15-21.15 31.73-31.73 10.53-10.53 21.05-21.05 31.58-31.57 5-5 9.98-4.99 14.98 0 14.55 14.54 29.09 29.09 43.63 43.63 4.87 4.87 4.9 10.03.06 14.87z"/><path d="m165.58 152.64s.01-.01.02-.02c-2.54-2.54-5.06-5.11-7.64-7.62-1.28-1.25-2.52-2.62-4.03-3.55-3.75-2.31-8.86-1.34-11.54 1.96-3.03 3.74-3.02 8.79.3 12.18 6.59 6.73 13.3 13.35 19.98 20 .55.55 1.21 1.03 1.9 1.4 3.98 2.16 8.95 1.11 11.64-2.41 2.74-3.58 2.57-8.55-.58-11.86-3.28-3.43-6.7-6.73-10.05-10.09z"/></g></svg>