<svg viewBox="0 0 600.08 300" xmlns="http://www.w3.org/2000/svg"><path d="m331.47 148.16h36.13v3.68h-36.13z" fill="#0fb6cc" transform="matrix(.70710678 -.70710678 .70710678 .70710678 -3.69 291.09)"/><path d="m347.7 131.93h3.68v36.13h-3.68z" fill="#0fb6cc" transform="matrix(.70710678 -.70710678 .70710678 .70710678 -3.69 291.09)"/><path d="m412.41 95.68h-11.75c-.53 0-.79.29-.79.87v49.93c0 .58.26.87.79.87h7.26c.52 0 .79-.29.79-.87v-17.43h3.86c5.47 0 9.57-1.42 12.3-4.26s4.1-6.97 4.1-12.38-1.34-9.75-4.02-12.54-6.86-4.18-12.54-4.18zm5.84 23.43c-1.26 1.42-3.23 2.13-5.92 2.13h-3.63v-17.75h3.71c2.63 0 4.57.71 5.84 2.13 1.26 1.42 1.89 3.73 1.89 6.94 0 2.95-.63 5.13-1.89 6.55z"/><path d="m460.21 95.68h-24.69c-.53 0-.79.29-.79.87v49.93c0 .58.26.87.79.87h24.69c.52 0 .79-.29.79-.87v-6.23c0-.58-.26-.87-.79-.87h-16.64v-14.43h15.22c.53 0 .79-.29.79-.87v-5.84c0-.58-.26-.87-.79-.87h-15.22v-13.72h16.64c.52 0 .79-.29.79-.87v-6.23c0-.58-.26-.87-.79-.87z"/><path d="m493.46 123.84c-1.18-1.31-2.8-2.58-4.85-3.79l-8.28-4.89c-1.68-.95-2.91-1.96-3.67-3.04s-1.12-2.43-1.06-4.06c.05-1.79.56-3.12 1.54-3.98.97-.87 2.35-1.3 4.14-1.3 2.1 0 3.68.64 4.73 1.93s1.47 3.01 1.26 5.17c-.05.79.18 1.18.71 1.18h7.26c.42 0 .68-.39.79-1.18.42-4.73-.66-8.39-3.23-10.96-2.58-2.58-6.47-3.86-11.67-3.86-4.73 0-8.3 1.12-10.69 3.35-2.39 2.24-3.62 5.46-3.67 9.66-.05 3.21.56 5.88 1.85 8.01s3.4 4.09 6.35 5.88l8.52 5.05c1.1.63 2 1.3 2.68 2.01s1.17 1.49 1.46 2.33.43 1.81.43 2.92c0 2.05-.53 3.56-1.58 4.54-1.05.97-2.71 1.46-4.97 1.46s-3.93-.64-5.01-1.93-1.57-3.17-1.46-5.64c.05-.74-.18-1.1-.71-1.1h-7.1c-.53 0-.82.37-.87 1.1-.42 4.73.56 8.47 2.96 11.2 2.39 2.73 6.38 4.1 11.95 4.1s9.36-1.18 11.83-3.55 3.71-5.76 3.71-10.18c.05-2.31-.2-4.3-.75-5.95-.55-1.66-1.42-3.14-2.6-4.46z"/><path d="m527.33 113.98h7.26c.47 0 .74-.29.79-.87.47-3.68.1-6.87-1.1-9.58-1.21-2.71-3.13-4.8-5.76-6.27s-5.84-2.21-9.62-2.21c-5.47 0-9.65 1.51-12.54 4.54-2.89 3.02-4.34 7.53-4.34 13.53v16.88c0 6.05 1.45 10.56 4.34 13.53s7.07 4.46 12.54 4.46 10.04-1.62 12.94-4.85c2.89-3.23 4.1-7.61 3.63-13.13-.05-.68-.34-1.03-.87-1.03h-7.26c-.53 0-.76.32-.71.95.21 3.05-.29 5.5-1.5 7.34s-3.26 2.76-6.15 2.76c-2.63 0-4.64-.83-6.03-2.48-1.39-1.66-2.09-4.3-2.09-7.93v-16.25c0-3.58.68-6.19 2.05-7.85s3.39-2.48 6.07-2.48 4.81.87 6.07 2.6 1.76 4.23 1.5 7.49c-.05.58.21.87.79.87z"/><path d="m562.27 96.39c-.21-.47-.55-.71-1.03-.71h-9.54c-.47 0-.79.24-.95.71l-13.01 50.01c-.16.63.05.95.63.95h7.81c.52 0 .81-.24.87-.71l2.32-10.33h14.13l2.32 10.33c.16.47.45.71.87.71h7.97c.58 0 .79-.32.63-.95l-13.01-50.01zm-11.23 32.5 3.19-14.2c.42-1.79.8-3.56 1.14-5.32s.67-3.51.99-5.25h.16c.32 1.74.64 3.48.99 5.25.34 1.76.72 3.54 1.14 5.32l3.19 14.2z"/><path d="m407.92 152.66h-7.26c-.53 0-.79.29-.79.87v49.93c0 .58.26.87.79.87h7.26c.52 0 .79-.29.79-.87v-49.93c0-.58-.26-.87-.79-.87z"/><path d="m441.2 196.35h-15.77v-42.83c0-.21-.07-.41-.2-.59s-.33-.28-.59-.28h-7.26c-.53 0-.79.29-.79.87v49.93c0 .58.26.87.79.87h23.82c.52 0 .79-.29.79-.87v-6.23c0-.58-.26-.87-.79-.87z"/><path d="m472.28 152.66h-24.69c-.53 0-.79.29-.79.87v49.93c0 .58.26.87.79.87h24.69c.52 0 .79-.29.79-.87v-6.23c0-.58-.26-.87-.79-.87h-16.64v-14.43h15.22c.53 0 .79-.29.79-.87v-5.84c0-.58-.26-.87-.79-.87h-15.22v-13.72h16.64c.52 0 .79-.29.79-.87v-6.23c0-.58-.26-.87-.79-.87z"/><path d="m512.23 198.72c-.08-1.68-.12-3.65-.12-5.92v-14.51c0-.58-.26-.87-.79-.87h-15.22c-.53 0-.79.29-.79.87v5.05c0 .58.26.87.79.87h7.41v3.16c0 3.16-.68 5.55-2.05 7.18s-3.39 2.45-6.07 2.45-4.81-.79-6.07-2.37-1.89-4.13-1.89-7.65v-16.8c0-3.52.68-6.1 2.05-7.73s3.44-2.44 6.23-2.44c2.63 0 4.56.79 5.8 2.37 1.23 1.58 1.75 3.76 1.54 6.55-.05.63.21.95.79.95h7.26c.47 0 .74-.29.79-.87.32-3.42-.13-6.4-1.34-8.95s-3.08-4.52-5.6-5.92c-2.52-1.39-5.65-2.09-9.39-2.09-5.42 0-9.6 1.54-12.54 4.61-2.95 3.08-4.42 7.53-4.42 13.37v17.43c0 5.79 1.3 10.15 3.9 13.09 2.6 2.95 6.27 4.42 11 4.42 1.89 0 3.55-.26 4.97-.79 1.42-.52 2.65-1.29 3.71-2.29 1.05-1 1.89-2.16 2.52-3.47h.08c.05 1.05.12 2.01.2 2.88s.17 1.62.28 2.25c.1.53.39.79.87.79h5.76c.63 0 .89-.32.79-.95-.21-1.42-.35-2.97-.43-4.65z"/><path d="m540.19 153.37c-.21-.47-.55-.71-1.03-.71h-9.54c-.47 0-.79.24-.95.71l-13.01 50.01c-.16.63.05.95.63.95h7.81c.52 0 .81-.24.87-.71l2.32-10.33h14.13l2.32 10.33c.16.47.45.71.87.71h7.97c.58 0 .79-.32.63-.95l-13.01-50.01zm-11.24 32.49 3.19-14.2c.42-1.79.8-3.56 1.14-5.32s.67-3.51.99-5.25h.16c.32 1.74.64 3.48.99 5.25.34 1.76.72 3.54 1.14 5.32l3.19 14.2z"/><path d="m581.36 196.35h-15.77v-42.83c0-.21-.07-.41-.2-.59s-.33-.28-.59-.28h-7.26c-.53 0-.79.29-.79.87v49.93c0 .58.26.87.79.87h23.82c.52 0 .79-.29.79-.87v-6.23c0-.58-.26-.87-.79-.87z"/><path d="m66.33 95.16c-5.34-5.69-13.3-8.54-23.9-8.54h-22.94c-1.04 0-1.55.52-1.55 1.55v75.15c0 1.04.56 1.55 1.67 1.55h23.18c10.35 0 18.2-2.93 23.54-8.78s8.01-14.71 8.01-26.58v-8.84c0-11.31-2.67-19.81-8.01-25.51z" fill="#bccf00"/><path d="m216.82 101.44v-13.26c0-1.03-.48-1.55-1.43-1.55h-58.18c-.96 0-1.43.52-1.43 1.55v13.26c0 1.04.48 1.55 1.43 1.55h19.77v60.34c0 1.04.52 1.55 1.55 1.55h15.65c.96 0 1.43-.52 1.43-1.55v-60.34h19.77c.96 0 1.43-.52 1.43-1.55z" fill="#0fb6cc"/><path d="m251.56 85.38-45.89 79.5h91.79z" fill="#006272"/><path d="m120.23 85.38-45.9 79.5h91.79z" fill="#4891dc"/><g fill="#25282a"><path d="m37.23 176.02c7.88 0 14.68 3.97 17.56 11.36h-7.45c-2.01-4.02-5.6-5.93-10.11-5.93-7.5 0-12.94 5.33-12.94 13.86s5.44 13.92 12.94 13.92c4.51 0 8.1-1.9 10.11-5.93h7.45c-2.88 7.39-9.68 11.31-17.56 11.31-10.65 0-19.3-7.94-19.3-19.3s8.64-19.3 19.3-19.3z"/><path d="m99.22 181.51h-14.68v11.09h13.05v5.06h-13.05v11.58h14.68v5.06h-20.88v-37.84h20.88v5.06z"/><path d="m154.19 176.45v37.84h-6.2l-18.65-28.22v28.22h-6.2v-37.84h6.2l18.65 28.16v-28.16z"/><path d="m176.7 176.5h26.37v5.06h-10.06v32.73h-6.2v-32.73h-10.11z"/><path d="m246.52 181.51h-14.68v11.09h13.05v5.06h-13.05v11.58h14.68v5.06h-20.88v-37.84h20.88v5.06z"/><path d="m283.49 176.5c8.97 0 13.37 5.16 13.37 11.31 0 4.46-2.39 9.24-8.75 10.82l9.35 15.66h-7.39l-8.7-15.11h-4.73v15.11h-6.2v-37.78h13.05zm0 5.06h-6.85v12.67h6.85c4.84 0 7.01-2.66 7.01-6.42s-2.17-6.25-7.01-6.25z"/></g></svg>