<svg width="55" height="55" viewBox="0 0 55 55" fill="none" xmlns="http://www.w3.org/2000/svg">
<path d="M46.3158 23.1579V14.4737C46.3158 11.2808 43.7192 8.68421 40.5263 8.68421H31.8421C31.8421 3.89632 27.9458 0 23.1579 0C18.37 0 14.4737 3.89632 14.4737 8.68421H5.78947C2.59658 8.68421 0 11.2808 0 14.4737V25.7082L1.90763 26.4C4.22921 27.2395 5.78947 29.4279 5.78947 31.8421C5.78947 34.2563 4.22921 36.4447 1.90763 37.2842L0 37.9761V49.2105C0 52.4034 2.59658 55 5.78947 55H17.0239L17.7158 53.0924C18.5553 50.7708 20.7437 49.2105 23.1579 49.2105C25.5721 49.2105 27.7605 50.7708 28.6 53.0924L29.2918 55H40.5263C43.7192 55 46.3158 52.4034 46.3158 49.2105V40.5263C51.1037 40.5263 55 36.63 55 31.8421C55 27.0542 51.1037 23.1579 46.3158 23.1579ZM46.3158 34.7368H40.5263L40.5176 49.2105H33.1505C31.0924 45.6789 27.2974 43.4211 23.1579 43.4211C19.0184 43.4211 15.2234 45.6789 13.1653 49.2105H5.78947V41.8347C9.32105 39.7766 11.5789 35.9816 11.5789 31.8421C11.5789 27.7026 9.32105 23.9076 5.78947 21.8495V14.4737H20.2632V8.68421C20.2632 7.91648 20.5681 7.18019 21.111 6.63732C21.6539 6.09445 22.3902 5.78947 23.1579 5.78947C23.9256 5.78947 24.6619 6.09445 25.2048 6.63732C25.7477 7.18019 26.0526 7.91648 26.0526 8.68421V14.4737H40.5263V28.9474H46.3158C47.0835 28.9474 47.8198 29.2523 48.3627 29.7952C48.9055 30.3381 49.2105 31.0744 49.2105 31.8421C49.2105 32.6098 48.9055 33.3461 48.3627 33.889C47.8198 34.4319 47.0835 34.7368 46.3158 34.7368Z" fill="white"/>
</svg>
