<svg width="19" height="19" viewBox="0 0 19 19" fill="none" xmlns="http://www.w3.org/2000/svg">
<path fill-rule="evenodd" clip-rule="evenodd" d="M16.2316 2.76151C15.3553 1.88355 14.3125 1.18739 13.1639 0.713367C12.0152 0.239346 10.7835 -0.00311517 9.54002 3.02149e-05C4.32584 3.02149e-05 0.0811424 4.22353 0.0790348 9.41506C0.0790348 11.0743 0.514253 12.6936 1.34148 14.1221L0 19L5.01502 17.6901C6.40223 18.4416 7.95638 18.8357 9.53581 18.8364H9.54002C14.7532 18.8364 18.9979 14.6129 19 9.42136C19.0035 8.18429 18.7607 6.95878 18.2856 5.81566C17.8104 4.67255 17.1123 3.6345 16.2316 2.76151ZM9.54002 17.2475H9.53686C8.12848 17.2476 6.74602 16.8705 5.53454 16.1557L5.24791 15.9858L2.27199 16.7629L3.0655 13.8756L2.87897 13.5798C2.09156 12.3322 1.67473 10.8884 1.67659 9.41506C1.6787 5.10032 5.20576 1.59 9.54319 1.59C10.5762 1.58772 11.5994 1.78936 12.5535 2.18326C13.5077 2.57715 14.3739 3.15548 15.102 3.88477C15.834 4.61058 16.4141 5.47358 16.809 6.4239C17.2039 7.37421 17.4055 8.39299 17.4024 9.42136C17.4003 13.7361 13.8732 17.2475 9.54002 17.2475ZM13.8532 11.3857C13.6161 11.2672 12.4548 10.6988 12.2377 10.6201C12.0217 10.5415 11.8647 10.5027 11.7066 10.7376C11.5486 10.9725 11.0954 11.5022 10.9574 11.6595C10.8193 11.8168 10.6813 11.8357 10.4452 11.7182C10.2092 11.6008 9.44729 11.3522 8.54419 10.5509C7.8413 9.92688 7.36709 9.15706 7.22905 8.92108C7.091 8.6851 7.21429 8.5582 7.33337 8.44073C7.43981 8.33585 7.56942 8.16595 7.68745 8.02855C7.80547 7.89116 7.84446 7.79363 7.9235 7.63631C8.00253 7.47899 7.96354 7.34159 7.90348 7.22413C7.84446 7.10562 7.37131 5.94775 7.17425 5.47684C6.98351 5.02061 6.78856 5.08144 6.64314 5.07515C6.49252 5.06902 6.34179 5.06622 6.19106 5.06676C6.07119 5.0698 5.95325 5.09745 5.84463 5.14799C5.73601 5.19852 5.63905 5.27084 5.55983 5.36042C5.34275 5.5964 4.7326 6.16485 4.7326 7.32272C4.7326 8.48059 5.57985 9.59965 5.69788 9.75697C5.81591 9.91429 7.36499 12.2898 9.73603 13.3092C10.3009 13.5515 10.7414 13.6962 11.0838 13.8053C11.6497 13.9847 12.165 13.9584 12.5729 13.8987C13.027 13.8315 13.9712 13.3302 14.1683 12.7806C14.3654 12.2311 14.3654 11.7602 14.3063 11.6616C14.2473 11.563 14.0882 11.5032 13.8532 11.3857Z" fill="#FDBF2D"/>
</svg>
