<svg fill="none" height="188" viewBox="0 0 247 188" width="247" xmlns="http://www.w3.org/2000/svg"><path d="m122 136.605c4.167-17.333 6.9-60.9988-15.5-96.9991 36.5-13.6667 111.2-40.500032 118-38.50003 7.167 7.3332 21.5 31.89963 21.5 71.49963 0 32.0435-10.267 67.2305-44.5 76.5335m-79.5-12.534c35.089 14.988 60.851 17.602 79.5 12.534m-79.5-12.534-120 35.5c1.91558 1.244 3.92223 2.39 6 3.446m193.5-26.412-126 37.466c-13.7397 1.222-44.8473.457-67.5-11.054m0 0 117.5-34.946m-109.5 38.462 117.5-34.945m-107.5 38.139 117.5-34.946m-105.5 37.29 117.5-34.945m-100.5 37.077 117.5-34.946" stroke="#fff" stroke-dasharray="4 4"/></svg>